<svg width="66" height="66" viewBox="0 0 66 66" fill="none" xmlns="http://www.w3.org/2000/svg">
<g clip-path="url(#clip0_2_1286)">
<path d="M22.349 40.6768H18.449C17.8712 40.6768 17.3657 40.4602 16.9324 40.0268C16.499 39.5935 16.2824 39.0879 16.2824 38.5102V36.3435C16.2824 36.199 16.2101 36.1268 16.0657 36.1268C14.7657 35.6935 13.5379 35.1157 12.3824 34.3935C12.2379 34.3935 12.0935 34.3935 11.949 34.3935L10.4324 35.9102C9.99902 36.3435 9.49347 36.5602 8.91569 36.5602C8.33791 36.5602 7.83236 36.3435 7.39902 35.9102L4.79902 33.3102C4.36569 32.8768 4.14902 32.3713 4.14902 31.7935C4.14902 31.2157 4.36569 30.7102 4.79902 30.2768L6.31569 28.7602C6.31569 28.6157 6.31569 28.5435 6.31569 28.5435C5.59347 27.2435 5.08791 25.9435 4.79902 24.6435C4.65458 24.499 4.51013 24.4268 4.36569 24.4268H2.41569C1.69347 24.4268 1.1518 24.2102 0.79069 23.7768C0.429579 23.3435 0.249023 22.8379 0.249023 22.2602V18.3602C0.249023 17.7824 0.429579 17.3129 0.79069 16.9518C1.1518 16.5907 1.69347 16.4102 2.41569 16.4102H4.36569C4.51013 16.4102 4.65458 16.3379 4.79902 16.1935C5.08791 14.749 5.59347 13.449 6.31569 12.2935C6.31569 12.149 6.31569 12.0768 6.31569 12.0768L4.79902 10.5602C4.36569 10.1268 4.14902 9.58516 4.14902 8.93516C4.14902 8.28516 4.36569 7.81571 4.79902 7.52682L7.39902 4.71016C7.83236 4.27682 8.33791 4.06016 8.91569 4.06016C9.49347 4.06016 9.99902 4.27682 10.4324 4.71016L11.949 6.22682C12.0935 6.37127 12.2379 6.37127 12.3824 6.22682C13.5379 5.5046 14.7657 4.99904 16.0657 4.71016C16.2101 4.71016 16.2824 4.63793 16.2824 4.49349V2.32682C16.2824 1.74904 16.499 1.24349 16.9324 0.810156C17.3657 0.376822 17.8712 0.160156 18.449 0.160156H22.349C22.9268 0.160156 23.4324 0.376822 23.8657 0.810156C24.299 1.24349 24.5157 1.74904 24.5157 2.32682V4.49349C24.5157 4.63793 24.5879 4.71016 24.7324 4.71016C26.0324 4.99904 27.2601 5.5046 28.4157 6.22682C28.5601 6.37127 28.7046 6.37127 28.849 6.22682L30.3657 4.71016C30.799 4.27682 31.3046 4.06016 31.8824 4.06016C32.4601 4.06016 32.9657 4.27682 33.399 4.71016L33.6157 4.92682C33.9046 5.21571 33.9768 5.54071 33.8324 5.90182C33.6879 6.26293 33.4712 6.51571 33.1824 6.66016C32.8935 6.8046 32.6046 6.73238 32.3157 6.44349L32.099 6.22682C31.9546 5.93793 31.8101 5.86571 31.6657 6.01016L30.149 7.52682C29.7157 7.96016 29.2824 8.21293 28.849 8.28516C28.4157 8.35738 27.9824 8.24904 27.549 7.96016C26.3935 7.38238 25.2379 6.87682 24.0824 6.44349C23.649 6.44349 23.2879 6.22682 22.999 5.79349C22.7101 5.36016 22.5657 4.92682 22.5657 4.49349V2.32682C22.5657 2.18238 22.4935 2.11016 22.349 2.11016H18.449C18.3046 2.11016 18.2324 2.18238 18.2324 2.32682V4.49349C18.2324 4.92682 18.0879 5.36016 17.799 5.79349C17.5101 6.22682 17.0768 6.44349 16.499 6.44349C15.3435 6.87682 14.2601 7.38238 13.249 7.96016C12.8157 8.24904 12.3462 8.35738 11.8407 8.28516C11.3351 8.21293 10.9379 7.96016 10.649 7.52682L9.13236 6.01016H8.91569H8.69902L6.09902 8.82682V9.04349L7.61569 10.5602C7.90458 10.9935 8.08513 11.4268 8.15736 11.8602C8.22958 12.2935 8.12125 12.7268 7.83236 13.1602C7.25458 14.3157 6.82125 15.4713 6.53236 16.6268C6.38791 17.0602 6.13513 17.4213 5.77402 17.7102C5.41291 17.999 4.94347 18.1435 4.36569 18.1435H2.41569C2.1268 18.1435 1.98236 18.2157 1.98236 18.3602V22.2602C1.98236 22.4046 2.1268 22.4768 2.41569 22.4768H4.36569C4.94347 22.4768 5.41291 22.6213 5.77402 22.9102C6.13513 23.199 6.38791 23.6324 6.53236 24.2102C6.82125 25.3657 7.25458 26.449 7.83236 27.4602C8.12125 27.8935 8.22958 28.3629 8.15736 28.8685C8.08513 29.374 7.90458 29.7713 7.61569 30.0602L6.09902 31.5768V31.7935V32.0102L8.69902 34.6102C8.84347 34.7546 8.98791 34.7546 9.13236 34.6102L10.649 33.0935C10.9379 32.8046 11.3351 32.624 11.8407 32.5518C12.3462 32.4796 12.8157 32.5879 13.249 32.8768C14.2601 33.4546 15.3435 33.8879 16.499 34.1768C17.0768 34.3213 17.5101 34.574 17.799 34.9352C18.0879 35.2963 18.2324 35.7657 18.2324 36.3435V38.5102C18.2324 38.6546 18.3046 38.7268 18.449 38.7268H22.349C22.4935 38.7268 22.5657 38.6546 22.5657 38.5102V36.3435C22.5657 35.7657 22.7101 35.2963 22.999 34.9352C23.2879 34.574 23.649 34.3213 24.0824 34.1768C24.5157 34.0324 24.8407 34.1046 25.0574 34.3935C25.274 34.6824 25.3462 35.0074 25.274 35.3685C25.2018 35.7296 25.0574 35.9463 24.8407 36.0185C24.624 36.0907 24.5157 36.199 24.5157 36.3435V38.5102C24.5157 39.0879 24.299 39.5935 23.8657 40.0268C23.4324 40.4602 22.9268 40.6768 22.349 40.6768ZM11.299 20.3102C11.299 18.2879 11.9129 16.4824 13.1407 14.8935C14.3685 13.3046 15.9212 12.2574 17.799 11.7518C19.6768 11.2463 21.6268 11.3546 23.649 12.0768C23.9379 12.2213 24.1185 12.4379 24.1907 12.7268C24.2629 13.0157 24.1546 13.3046 23.8657 13.5935C23.5768 13.8824 23.2879 13.9546 22.999 13.8102C21.4101 13.2324 19.8574 13.1602 18.3407 13.5935C16.824 14.0268 15.5962 14.8574 14.6574 16.0852C13.7185 17.3129 13.249 18.7213 13.249 20.3102C13.249 22.3324 14.0074 24.0657 15.524 25.5102C17.0407 26.9546 18.8101 27.6046 20.8324 27.4602C21.2657 27.4602 21.5546 27.6046 21.699 27.8935C21.8435 28.1824 21.8435 28.4713 21.699 28.7602C21.5546 29.049 21.2657 29.2657 20.8324 29.4102C18.3768 29.5546 16.174 28.724 14.224 26.9185C12.274 25.1129 11.299 22.9102 11.299 20.3102ZM52.899 42.4102L43.149 40.4602V38.0768C45.8935 36.3435 47.4101 33.8879 47.699 30.7102C48.4212 30.7102 49.0351 30.4574 49.5407 29.9518C50.0462 29.4463 50.299 28.8324 50.299 28.1102V26.1602C51.0212 25.7268 51.4907 25.1852 51.7074 24.5352C51.924 23.8852 51.8518 23.199 51.4907 22.4768C51.1296 21.7546 50.5879 21.3213 49.8657 21.1768V20.5268C49.8657 17.0602 48.6379 14.1352 46.1824 11.7518C43.7268 9.36849 40.8379 8.17682 37.5157 8.17682H36.4324C33.1101 8.17682 30.2212 9.36849 27.7657 11.7518C25.3101 14.1352 24.0824 17.0602 24.0824 20.5268V21.1768C23.3601 21.3213 22.8185 21.7546 22.4574 22.4768C22.0962 23.199 22.024 23.8852 22.2407 24.5352C22.4574 25.1852 22.9268 25.7268 23.649 26.1602V28.1102C23.649 28.8324 23.9018 29.4463 24.4074 29.9518C24.9129 30.4574 25.5268 30.7102 26.249 30.7102C26.5379 33.4546 27.6935 35.6935 29.7157 37.4268L30.799 38.0768V40.4602L21.049 42.4102C18.3046 42.9879 16.1018 44.0352 14.4407 45.5518C12.7796 47.0685 11.949 49.0546 11.949 51.5102V61.2602C11.949 62.4157 12.3462 63.3546 13.1407 64.0768C13.9351 64.799 14.8379 65.1602 15.849 65.1602H58.099C59.1101 65.1602 60.0129 64.799 60.8074 64.0768C61.6018 63.3546 61.999 62.4157 61.999 61.2602V51.5102C61.999 49.0546 61.1685 47.0685 59.5074 45.5518C57.8462 44.0352 55.6435 42.9879 52.899 42.4102ZM44.8824 42.8435C44.0157 44.1435 43.0768 45.5157 42.0657 46.9602C41.7768 47.249 41.4879 47.4657 41.199 47.6102C40.9101 47.7546 40.6212 47.7546 40.3324 47.6102L38.8157 46.7435C41.1268 45.4435 42.499 43.999 42.9324 42.4102L44.8824 42.8435ZM36.8657 45.6602C35.8546 45.0824 34.9879 44.5046 34.2657 43.9268C33.1101 42.9157 32.5324 42.049 32.5324 41.3268V39.1602C35.4212 40.4602 38.3101 40.4602 41.199 39.1602V41.3268C41.199 42.049 40.6935 42.9157 39.6824 43.9268C38.9601 44.5046 38.0212 45.0824 36.8657 45.6602ZM26.0324 20.5268C26.0324 18.5046 26.5379 16.699 27.549 15.1102C28.5601 13.5213 29.8601 12.2935 31.449 11.4268V12.5102C31.449 12.9435 31.5935 13.2324 31.8824 13.3768C32.1712 13.5213 32.4962 13.5213 32.8574 13.3768C33.2185 13.2324 33.399 12.9435 33.399 12.5102V10.5602C34.2657 10.2713 35.1324 10.1268 35.999 10.1268V14.6768C35.999 15.1102 36.1435 15.399 36.4324 15.5435C36.7212 15.6879 37.0462 15.6879 37.4074 15.5435C37.7685 15.399 37.949 15.1102 37.949 14.6768V10.1268C38.8157 10.1268 39.6824 10.2713 40.549 10.5602V12.5102C40.549 12.9435 40.7296 13.2324 41.0907 13.3768C41.4518 13.5213 41.7768 13.5213 42.0657 13.3768C42.3546 13.2324 42.499 12.9435 42.499 12.5102V11.4268C44.0879 12.2935 45.3879 13.5213 46.399 15.1102C47.4101 16.699 47.9157 18.5046 47.9157 20.5268V21.1768H26.0324V20.5268ZM24.7324 23.1268H49.2157C49.649 23.1268 49.8657 23.3435 49.8657 23.7768C49.8657 24.2102 49.649 24.4268 49.2157 24.4268H24.7324C24.299 24.4268 24.0824 24.2102 24.0824 23.7768C24.0824 23.3435 24.299 23.1268 24.7324 23.1268ZM27.9824 29.8435C27.9824 29.5546 27.9101 29.3379 27.7657 29.1935C27.6212 29.049 27.4046 28.9768 27.1157 28.9768H26.899C26.0324 28.9768 25.599 28.6879 25.599 28.1102V26.3768H48.349V28.1102C48.349 28.6879 47.9157 28.9768 47.049 28.9768H46.8324C46.5435 28.9768 46.3268 29.049 46.1824 29.1935C46.0379 29.3379 45.9657 29.5546 45.9657 29.8435C45.8212 32.299 44.8462 34.3213 43.0407 35.9102C41.2351 37.499 39.2129 38.2935 36.974 38.2935C34.7351 38.2935 32.7129 37.499 30.9074 35.9102C29.1018 34.3213 28.1268 32.299 27.9824 29.8435ZM31.0157 42.4102C31.449 43.999 32.8212 45.4435 35.1324 46.7435L33.8324 47.3935C33.5435 47.5379 33.2185 47.6102 32.8574 47.6102C32.4962 47.6102 32.1712 47.3935 31.8824 46.9602L29.0657 42.8435L31.0157 42.4102ZM19.9657 63.2102H15.849C15.2712 63.2102 14.8018 63.0296 14.4407 62.6685C14.0796 62.3074 13.899 61.8379 13.899 61.2602V51.5102C13.899 48.7657 15.2712 46.7435 18.0157 45.4435L18.2324 45.8768C19.3879 49.6324 19.9657 53.4602 19.9657 57.3602V63.2102ZM35.999 63.2102H21.9157V57.3602C21.9157 53.1713 21.2657 49.1268 19.9657 45.2268L19.749 44.7935L26.899 43.2768L34.699 54.5435C35.5657 55.699 35.999 56.999 35.999 58.4435V63.2102ZM36.8657 54.5435C36.7212 54.1102 36.5046 53.749 36.2157 53.4602L33.6157 49.5602C33.9046 49.5602 34.1935 49.4157 34.4824 49.1268L36.8657 47.8268L39.4657 49.1268C39.7546 49.4157 40.0435 49.5602 40.3324 49.5602L37.5157 53.4602L36.8657 54.5435ZM60.049 61.2602C60.049 61.8379 59.8324 62.3074 59.399 62.6685C58.9657 63.0296 58.5324 63.2102 58.099 63.2102H53.9824V59.7435C53.9824 59.3102 53.8379 59.0213 53.549 58.8768C53.2601 58.7324 52.9351 58.7324 52.574 58.8768C52.2129 59.0213 52.0324 59.3102 52.0324 59.7435V63.2102H37.949V58.4435C37.949 56.999 38.3824 55.699 39.249 54.5435L47.049 43.2768L54.199 44.7935L53.9824 45.2268C52.8268 48.6935 52.1768 52.2324 52.0324 55.8435C52.0324 56.2768 52.2129 56.5657 52.574 56.7102C52.9351 56.8546 53.2601 56.8546 53.549 56.7102C53.8379 56.5657 53.9824 56.2768 53.9824 55.8435C54.1268 52.5213 54.7046 49.199 55.7157 45.8768L55.9324 45.4435C58.6768 46.7435 60.049 48.7657 60.049 51.5102V61.2602Z" fill="black"/>
</g>
<defs>
<clipPath id="clip0_2_1286">
<rect width="65.02" height="65" fill="white" transform="matrix(1 0 0 -1 0.239258 65.1602)"/>
</clipPath>
</defs>
</svg>
